{"accessors" : [{"bufferView" : 0, "byteOffset" : 0, "componentType" : 5123, "count" : 4224, "type" : "SCALAR", "max" : [3994], "min" : [0]}, {"bufferView" : 1, "byteOffset" : 0, "componentType" : 5126, "count" : 3995, "type" : "VEC3", "max" : [1640.963134765625, 3214.63330078125, 1632.5621337890625], "min" : [-92.215576171875, 2817.008056640625, -144.89215087890625], "name" : "POSITION"}, {"bufferView" : 1, "byteOffset" : 12, "componentType" : 5126, "count" : 3995, "type" : "VEC3", "max" : [0.9846851229667664, 0.9846919178962708, 0.9999905228614807], "min" : [-0.9846736192703247, -0.9846919178962708, -0.9999598264694214], "name" : "NORMAL"}], "asset" : {"generator" : "Aspose.3D 23.9.0", "version" : "2.0"}, "buffers" : [{"uri" : "data:application/octet-stream;base64,", "byteLength" : 109832}], "bufferViews" : [{"buffer" : 0, "byteOffset" : 0, "byteLength" : 8448, "target" : 34963}, {"buffer" : 0, "byteOffset" : 8452, "byteLength" : 101376, "byteStride" : 24, "target" : 34962}], "meshes" : [{"primitives" : [{"attributes" : {"POSITION" : 1, "NORMAL" : 2}, "indices" : 0, "mode" : 4}], "name" : ""}], "nodes" : [{"mesh" : 0, "name" : ""}], "scene" : 0, "scenes" : [{"nodes" : [0]}]}